<?xml version="1.0" encoding="utf-8"?>
<!-- Generator: Adobe Illustrator 21.1.0, SVG Export Plug-In . SVG Version: 6.00 Build 0)  -->
<svg version="1.1" id="Calque_1" xmlns="http://www.w3.org/2000/svg" xmlns:xlink="http://www.w3.org/1999/xlink" x="0px" y="0px"
	 viewBox="0 0 65 35.2" style="enable-background:new 0 0 65 35.2;" xml:space="preserve">
<style type="text/css">
	.st0{fill:#95A5A6;}
	.st1{fill:#BDC3C7;}
	.st2{fill:#ECF0F1;}
	.st3{fill:#7F8C8D;}
	.st4{fill:#27AE60;}
	.st5{fill:#F39C12;}
	.st6{fill:#2980B9;}
	.st7{fill:#C0392B;}
	.st8{fill:none;}
</style>
<title>joystick</title>
<g id="Calque_2">
	<g id="Layer_1">
		<g id="_Groupe_">
			<path id="_Tracé_" class="st0" d="M16.3,2.7c-1.9,0-3.8,0.3-5.6,0.8C4.3,5.9,0,12,0,18.9c0.1,6.8,4.3,12.8,10.7,15.2
				c2.6,1.1,5.8,1.1,8.6,1.1c5.3,0,8.6-5.7,13.2-5.4c4.6-0.3,7.9,5.4,13.2,5.4c2.8,0,6,0,8.6-1.1c6.3-2.4,10.6-8.4,10.7-15.2
				c0-6.8-4.3-13.3-10.7-15.4c-1.8-0.5-3.7-0.8-5.6-0.8H16.3z"/>
			<path id="_Tracé_2" class="st1" d="M16.3,0c-1.9,0-3.8,0.3-5.6,0.8C4.3,3.2,0,9.3,0,16.2C0.1,23,4.3,29,10.7,31.4
				c2.6,1.1,5.8,1.1,8.6,1.1c5.3,0,8.6-5.7,13.2-5.4c4.6-0.3,7.9,5.4,13.2,5.4c2.8,0,6,0,8.6-1.1C60.6,29,64.9,23,65,16.2
				c0-6.8-4.3-13.3-10.7-15.4C52.5,0.3,50.6,0,48.7,0H16.3z"/>
			<circle id="_Tracé_3" class="st2" cx="15" cy="16.9" r="13.5"/>
			<path id="_Tracé_4" class="st3" d="M15.1,5.4C13,5.3,11.3,6.9,11.2,9c0,0,0,0,0,0c0,0.1,0,0.1,0,0.2V13H7.4
				c-2.1-0.1-3.8,1.6-3.9,3.6c0,0,0,0,0,0c0,0.1,0,0.1,0,0.2c0,2.1,1.7,3.8,3.9,3.9h3.7v3.8c0,2.1,1.8,3.8,3.9,3.8
				c2.1-0.1,3.8-1.7,3.9-3.8v-3.8h3.9c2.1-0.1,3.8-1.7,3.9-3.8c0.1-2.1-1.6-3.8-3.6-3.8c0,0,0,0,0,0h-4.1V9.2c0.1-2-1.4-3.7-3.4-3.8
				L15.1,5.4z"/>
			<circle id="bt1" class="st2" cx="50" cy="16.9" r="13.5"/>
			<circle id="bt2" class="st4" cx="42.5" cy="16.9" r="4.5"/>
			<circle id="bt3" class="st5" cx="50" cy="24.9" r="4.5"/>
			<circle id="bt4" class="st6" cx="50" cy="9" r="4.5"/>
			<circle id="bt5" class="st7" cx="57.9" cy="16.9" r="4.5"/>
			<path id="_Tracé_5" class="st3" d="M30.9,15.5c-0.8,0-1.4,0.6-1.4,1.4c0,0.8,0.6,1.4,1.3,1.4c0,0,0,0,0,0h2.8
				c0.8,0,1.4-0.6,1.4-1.4c0-0.8-0.6-1.4-1.3-1.4c0,0,0,0,0,0H30.9z"/>
		</g>
		<polygon id="top" points="15.1,6.4 12,12.4 18,12.4 		"/>
		<polygon id="left" points="25.8,17 19.8,13.9 19.8,19.9 		"/>
		<polygon id="bot" points="3.9,16.9 9.9,20 9.9,14 		"/>
		<polygon id="right" points="15.1,27.4 18,21.4 12,21.4 		"/>
		<circle class="hitboxLeft"  fill="#FFFFFF" fill-opacity="1" cx="7.4" cy="17" r="4.5"/>
		<circle class="hitboxDown"  fill="#0000FF" fill-opacity="1" cx="15" cy="24.3" r="4.5"/>
		<circle class="hitboxUp"  fill="#00FF00" fill-opacity="1" cx="15" cy="9.3" r="4.5"/>
		<circle class="hitboxRight"  fill="#FF0000" fill-opacity="1" cx="22.5" cy="17" r="4.5"/>
	</g>
</g>
</svg>
