<svg xmlns="http://www.w3.org/2000/svg" viewBox="0 0 400 400"><defs><style>.cls-1{fill:#b7b7b7;}.cls-2{fill:#66bf6e;}.cls-3{stroke:#000;stroke-miterlimit:10;}</style></defs><title>turn-button</title><g id="Calque_2" data-name="Calque 2"><g id="Calque_1-2" data-name="Calque 1"><path class="cls-1" d="M200,399.5C90,399.5.5,310,.5,200S90,.5,200,.5,399.5,90,399.5,200,310,399.5,200,399.5Z"/><path d="M200,1a199.05,199.05,0,0,1,77.46,382.36A199.05,199.05,0,0,1,122.54,16.64,197.75,197.75,0,0,1,200,1m0-1C89.54,0,0,89.54,0,200S89.54,400,200,400s200-89.54,200-200S310.46,0,200,0Z"/><path class="cls-2" d="M200,299.5A99.5,99.5,0,1,1,299.5,200,99.61,99.61,0,0,1,200,299.5Z"/><path d="M200,101a99,99,0,1,1-99,99,99.11,99.11,0,0,1,99-99m0-1A100,100,0,1,0,300,200,100,100,0,0,0,200,100Z"/><path class="cls-3" d="M168.93,184.14c8-16.61,17.95-26.49,28.93-26.71,23.89-.47,44.82,45,51.38,106.58.34-6.65.45-13.48.32-20.46-1.27-65-23.63-117.36-49.94-116.84-17,.33-31.51,22.67-39.28,56l-31.75-5.24,23.24,74.85L198.41,189Z"/></g></g></svg>