<?xml version="1.0" encoding="UTF-8" standalone="no"?>
<svg
   xmlns:dc="http://purl.org/dc/elements/1.1/"
   xmlns:cc="http://creativecommons.org/ns#"
   xmlns:rdf="http://www.w3.org/1999/02/22-rdf-syntax-ns#"
   xmlns:svg="http://www.w3.org/2000/svg"
   xmlns="http://www.w3.org/2000/svg"
   xmlns:sodipodi="http://sodipodi.sourceforge.net/DTD/sodipodi-0.dtd"
   xmlns:inkscape="http://www.inkscape.org/namespaces/inkscape"
   enable-background="new 0 0 128 128"
   id="Layer_1"
   version="1.1"
   viewBox="0 0 128 128"
   xml:space="preserve"
   sodipodi:docname="Drawing.svg"
   inkscape:version="0.92.3 (2405546, 2018-03-11)"><metadata
     id="metadata12"><rdf:RDF><cc:Work
         rdf:about=""><dc:format>image/svg+xml</dc:format><dc:type
           rdf:resource="http://purl.org/dc/dcmitype/StillImage" /><dc:title></dc:title></cc:Work></rdf:RDF></metadata><defs
     id="defs10"><clipPath
       id="clipPath5343"
       clipPathUnits="userSpaceOnUse"><path
         style="fill:#7aafff;fill-opacity:1;stroke:none;stroke-width:2.01045942;stroke-linecap:round;stroke-linejoin:round;stroke-miterlimit:4;stroke-dasharray:none;stroke-opacity:1"
         id="path5345"
         d="m 3.0688351,285.55677 c -1.613568,1.19596 -2.5662181,3.08478 -2.56883509,5.09323 0,3.50701 2.84299219,6.35 6.35000009,6.35 C 10.357008,297 13.2,294.15701 13.2,290.65 c -0.0022,-0.84296 -0.452078,-2.71271 -0.500228,-2.45359 -0.02424,0.84121 -0.571809,2.35322 -0.602031,2.23138 -0.0026,-0.50621 -0.2876,-1.42626 -0.305098,-1.19509 0.02804,1.40695 -1.48374,3.17677 -2.3076623,3.50038 -0.8310457,0.36942 -1.7371637,0.56412 -2.6117267,0.56534 -0.1736918,2e-5 -1.1686519,-0.13807 -1.6443439,-0.70435 -0.826376,-0.89253 -0.00201,-1.09994 0.4625039,-1.27331 0.5055862,-0.18871 1.030887,-0.30969 1.5203212,-0.42013 0.7456988,-0.16826 0.4710618,-0.52626 0.1049028,-0.6289 -0.9266939,-0.25976 -2.044886,0.33543 -2.8654579,0.30593 -0.848406,-0.0291 -0.804618,-1.69621 -0.1405601,-1.76217 0.7394212,-0.0734 1.6665151,-0.51079 1.461779,-0.65673 -0.8303549,-0.61672 -0.9617369,-0.79081 -1.0595549,-1.16418 -0.1480201,-0.565 0.341282,-1.03557 0.05777,-0.96356 -0.2596169,0.08 -0.4110678,0.15641 -0.5988619,0.25715 -0.1672929,0.0897 -0.293814,0.0546 -0.6751841,0.002 -0.3249449,-0.045 -0.3870058,-0.0557 -0.3755009,-0.25673 0.0115,-0.20097 0.07295,-0.52125 -0.05223,-0.47648 z" /></clipPath></defs><sodipodi:namedview
     pagecolor="#ffffff"
     bordercolor="#666666"
     borderopacity="1"
     objecttolerance="10"
     gridtolerance="10"
     guidetolerance="10"
     inkscape:pageopacity="0"
     inkscape:pageshadow="2"
     inkscape:window-width="1920"
     inkscape:window-height="1007"
     id="namedview8"
     showgrid="false"
     inkscape:zoom="2.6074563"
     inkscape:cx="121.32842"
     inkscape:cy="99.973205"
     inkscape:window-x="1920"
     inkscape:window-y="23"
     inkscape:window-maximized="1"
     inkscape:current-layer="Layer_1" /><circle
     cx="64"
     cy="64"
     fill="#4B5F83"
     id="circle"
     r="64"
     style="fill:#96cb96;fill-opacity:1" /><path
     style="fill:#9955ff;fill-opacity:1;stroke:none;stroke-width:17.58399963;stroke-linecap:round;stroke-linejoin:round;stroke-miterlimit:4;stroke-dasharray:none;stroke-opacity:1"
     d="M 109.39258 63.771484 A 45.399494 45.399494 0 0 1 109.40039 64 A 45.399494 45.399494 0 0 1 86.601562 103.30859 L 92.871094 114.16992 A 58.195625 58.195625 0 0 0 121.96875 63.771484 L 109.39258 63.771484 z "
     id="path4598" /><path
     style="fill:#1dbbe1;fill-opacity:1;stroke:none;stroke-width:17.58399963;stroke-linecap:round;stroke-linejoin:round;stroke-miterlimit:4;stroke-dasharray:none;stroke-opacity:1"
     d="M 41.056641 103.11914 L 34.675781 114.16992 A 58.195625 58.195625 0 0 0 92.871094 114.16992 L 86.601562 103.30859 A 45.399494 45.399494 0 0 1 64 109.40039 A 45.399494 45.399494 0 0 1 41.056641 103.11914 z "
     id="path4598-4" /><path
     style="fill:#ff80aa;fill-opacity:1;stroke:none;stroke-width:17.58399963;stroke-linecap:round;stroke-linejoin:round;stroke-miterlimit:4;stroke-dasharray:none;stroke-opacity:1"
     d="M 92.871094 13.373047 L 86.414062 24.556641 A 45.399494 45.399494 0 0 1 109.39258 63.771484 L 121.96875 63.771484 A 58.195625 58.195625 0 0 0 92.871094 13.373047 z "
     id="path4598-44" /><path
     style="fill:#ff8041;fill-opacity:1;stroke:none;stroke-width:17.58399773;stroke-linecap:round;stroke-linejoin:round;stroke-miterlimit:4;stroke-dasharray:none;stroke-opacity:1"
     d="M 5.5761719 63.771484 A 58.195625 58.195625 0 0 0 34.675781 114.16992 L 41.056641 103.11914 A 45.399494 45.399494 0 0 1 18.599609 64 A 45.399494 45.399494 0 0 1 18.611328 63.771484 L 5.5761719 63.771484 z "
     id="path4598-4-4" /><g
     id="icon"
     transform="matrix(-1.240097,0,0,1.240097,143.87422,-15.170526)"
     style="stroke-width:0.8063885"><path
       d="m 52.7,81.1 c -5.1,0 -5.7,0.4 -5.7,-5.7 0,-6.1 43.9,-41 43.9,-41 l 2.5,0.3 c 0,0 -35.6,46.4 -40.7,46.4 z"
       id="line_1_"
       inkscape:connector-curvature="0"
       style="fill:#e67e22;stroke-width:0.8063885" /><rect
       height="4"
       id="line"
       transform="matrix(0.7071,0.7071,-0.7071,0.7071,67.1878,-18.4942)"
       width="10.4"
       x="50.700001"
       y="69.900002"
       style="fill:#e6e6e6;stroke-width:0.8063885" /><path
       d="M 49.6,89.9 36,93.5 C 35.2,93.7 34.4,93 34.6,92.1 l 3.6,-13.6 c 1.1,-4.2 6.3,-5.6 9.4,-2.5 l 4.5,4.5 c 3,3 1.6,8.3 -2.5,9.4 z"
       id="brush"
       inkscape:connector-curvature="0"
       style="fill:#22313f;stroke-width:0.8063885" /></g></svg>