<?xml version="1.0" encoding="UTF-8" standalone="no"?>
<svg
   xmlns:dc="http://purl.org/dc/elements/1.1/"
   xmlns:cc="http://creativecommons.org/ns#"
   xmlns:rdf="http://www.w3.org/1999/02/22-rdf-syntax-ns#"
   xmlns:svg="http://www.w3.org/2000/svg"
   xmlns="http://www.w3.org/2000/svg"
   xmlns:xlink="http://www.w3.org/1999/xlink"
   xmlns:sodipodi="http://sodipodi.sourceforge.net/DTD/sodipodi-0.dtd"
   xmlns:inkscape="http://www.inkscape.org/namespaces/inkscape"
   version="1.1"
   viewBox="0 0 65 35.2"
   id="joystick"
   sodipodi:docname="Untitled-1-TetrisNoInsk.svg"
   inkscape:version="0.92.3 (2405546, 2018-03-11)">
  <sodipodi:namedview
     pagecolor="#ffffff"
     bordercolor="#666666"
     borderopacity="1"
     objecttolerance="10"
     gridtolerance="10"
     guidetolerance="10"
     inkscape:pageopacity="0"
     inkscape:pageshadow="2"
     inkscape:window-width="1920"
     inkscape:window-height="1007"
     id="namedview50"
     showgrid="false"
     inkscape:zoom="18.963318"
     inkscape:cx="32.5"
     inkscape:cy="17.6"
     inkscape:window-x="1920"
     inkscape:window-y="23"
     inkscape:window-maximized="1"
     inkscape:current-layer="joystick" />
  <metadata
     id="metadata35">
    <rdf:RDF>
      <cc:Work
         rdf:about="">
        <dc:format>image/svg+xml</dc:format>
        <dc:type
           rdf:resource="http://purl.org/dc/dcmitype/StillImage" />
        <dc:title>Joystick
    </dc:title>
      </cc:Work>
    </rdf:RDF>
  </metadata>
  <defs
     id="defs4">
    <linearGradient
       id="linearGradient3281">
      <stop
         id="stop3277"
         offset="0"
         style="stop-color:#ffffff;stop-opacity:1;" />
      <stop
         id="stop3279"
         offset="1"
         style="stop-color:#ffffff;stop-opacity:0;" />
    </linearGradient>
    <linearGradient
       gradientUnits="userSpaceOnUse"
       y2="16.25"
       x2="65.000002"
       y1="16.25"
       x1="-9.9999994e-08"
       id="linearGradient3283"
       xlink:href="#linearGradient3281" />
  </defs>
  <title
     id="title6">Joystick
    </title>
  <path
     id="_Tracé_"
     data-name="&lt;Tracé&gt;"
     d="M 16.3,2.7 A 20.48,20.48 0 0 0 10.7,3.5 16.59,16.59 0 0 0 0,18.9 16.39,16.39 0 0 0 10.7,34.1 c 2.6,1.1 5.8,1.1 8.6,1.1 5.3,0 8.6,-5.7 13.2,-5.4 4.6,-0.3 7.9,5.4 13.2,5.4 2.8,0 6,0 8.6,-1.1 A 16.53,16.53 0 0 0 65,18.9 C 65,12.1 60.7,5.6 54.3,3.5 A 20.48,20.48 0 0 0 48.7,2.7 Z"
     style="fill:#6f8385;fill-opacity:1" />
  <path
     id="_Tracé_2"
     data-name="&lt;Tracé&gt;"
     d="M 16.3,0 A 20.48,20.48 0 0 0 10.7,0.8 16.59,16.59 0 0 0 0,16.2 16.39,16.39 0 0 0 10.7,31.4 c 2.6,1.1 5.8,1.1 8.6,1.1 5.3,0 8.6,-5.7 13.2,-5.4 4.6,-0.3 7.9,5.4 13.2,5.4 2.8,0 6,0 8.6,-1.1 A 16.53,16.53 0 0 0 65,16.2 C 65,9.4 60.7,2.9 54.3,0.8 A 20.48,20.48 0 0 0 48.7,0 Z"
     style="fill:#95a5a6;fill-opacity:1" />
  <path
     id="_Tracé_2-1"
     data-name="&lt;Tracé&gt;"
     d="m 16.299999,-1e-7 a 20.48,20.48 0 0 0 -5.6,0.8 A 16.59,16.59 0 0 0 -1e-7,16.2 16.39,16.39 0 0 0 10.7,31.4 c 2.6,1.1 5.799998,1.1 8.6,1.1 5.299999,0 8.6,-5.7 13.2,-5.4 4.6,-0.3 7.9,5.4 13.2,5.4 2.8,0 6,0 8.6,-1.1 A 16.53,16.53 0 0 0 65.000002,16.2 c 0,-6.8 -4.299999,-13.3000001 -10.700003,-15.4000001 a 20.48,20.48 0 0 0 -5.6,-0.8 z"
     style="opacity:0.29899998;fill:url(#linearGradient3283);fill-opacity:1" />
  <circle
     id="_Tracé_3"
     data-name="&lt;Tracé&gt;"
     cx="15.02"
     cy="16.879999"
     r="13.5"
     style="fill:#ecf0f1" />
  <circle
     cx="50.02"
     cy="16.879999"
     r="13.5"
     id="circle12"
     style="fill:#ecf0f1" />
  <g
     id="g3291">
    <path
       style="fill:#252c2d;fill-opacity:1"
       d="m 13.191599,5.9398305 c -2.148147,-0.06961 -3.912848,1.6813753 -3.86,3.83 l -0.15,15.3199995 c 0.04814,2.106622 1.753067,3.798297 3.86,3.83 2.090026,-0.07136 3.77234,-1.740594 3.86,-3.83 v -3.81 h 3.86 c 2.090026,-0.07136 3.77234,-1.740594 3.86,-3.83 0.05285,-2.148624 -1.711853,-3.89961 -3.86,-3.829999 h -3.86 V 9.7798305 c 0.123352,-2.118313 -1.588696,-3.8903521 -3.71,-3.84 z"
       data-name="&lt;Tracé&gt;"
       id="_Tracé_4-9" />
    <path
       style="fill:#6f8385;fill-opacity:1"
       d="m 13.191598,5.38 c -2.148147,-0.06961 -3.912848,1.6813753 -3.86,3.83 l -0.15,15.32 c 0.04814,2.106622 1.753067,3.798297 3.86,3.83 2.090026,-0.07136 3.77234,-1.740594 3.86,-3.83 v -3.81 h 3.86 c 2.090026,-0.07136 3.77234,-1.740594 3.86,-3.83 0.05285,-2.148625 -1.711853,-3.899611 -3.86,-3.83 h -3.86 V 9.22 c 0.123352,-2.118313 -1.588696,-3.8903521 -3.71,-3.84 z"
       data-name="&lt;Tracé&gt;"
       id="_Tracé_4" />
    <polyline
       style="fill:none;stroke:#000000;stroke-width:1.76075518;stroke-linecap:round;stroke-linejoin:round;stroke-miterlimit:4;stroke-dasharray:none"
       points="23 4 23 10 17 10"
       id="polyline878-3"
       transform="matrix(0.4031459,-0.4031459,0.40004587,0.40004587,9.707783,22.131597)" />
    <g
       id="g983"
       transform="translate(-2.0772454)">
      <polyline
         transform="matrix(-0.4031459,0.4031459,0.40004587,0.40004587,20.456421,13.208389)"
         id="polyline878-3-6-7"
         points="23 4 23 10 17 10"
         style="fill:none;stroke:#000000;stroke-width:1.76075518;stroke-linecap:round;stroke-linejoin:round;stroke-miterlimit:4;stroke-dasharray:none" />
      <polyline
         transform="matrix(-0.4031459,-0.4031459,0.40004587,-0.40004587,20.456421,20.643422)"
         id="polyline878-3-6-7-5"
         points="23 4 23 10 17 10"
         style="fill:none;stroke:#000000;stroke-width:1.76075518;stroke-linecap:round;stroke-linejoin:round;stroke-miterlimit:4;stroke-dasharray:none" />
    </g>
  </g>
  <g
     style="fill:#ffffff;stroke-width:128.44491577"
     transform="matrix(0.0469277,0,0,0.04692769,-5.4811273,-38.300791)"
     id="g7888">
    <path
       inkscape:connector-curvature="0"
       style="color:#000000;clip-rule:nonzero;display:inline;overflow:visible;visibility:visible;opacity:1;isolation:auto;mix-blend-mode:normal;color-interpolation:sRGB;color-interpolation-filters:linearRGB;solid-color:#000000;solid-opacity:1;fill:#ffffff;fill-opacity:1;fill-rule:nonzero;stroke-width:128.44491577;marker:none;color-rendering:auto;image-rendering:auto;shape-rendering:auto;text-rendering:auto;enable-background:accumulate"
       d="m 800.22948,1026.6952 h 18.24928 v 18.2493 h -18.24928 z"
       id="rect3341-2" />
    <path
       inkscape:connector-curvature="0"
       id="path4146-9"
       d="m 820.13779,1006.7869 h 18.24929 v 18.2493 h -18.24929 z"
       style="color:#000000;clip-rule:nonzero;display:inline;overflow:visible;visibility:visible;opacity:1;isolation:auto;mix-blend-mode:normal;color-interpolation:sRGB;color-interpolation-filters:linearRGB;solid-color:#000000;solid-opacity:1;fill:#ffffff;fill-opacity:1;fill-rule:nonzero;stroke-width:128.44491577;marker:none;color-rendering:auto;image-rendering:auto;shape-rendering:auto;text-rendering:auto;enable-background:accumulate" />
    <path
       inkscape:connector-curvature="0"
       style="color:#000000;clip-rule:nonzero;display:inline;overflow:visible;visibility:visible;opacity:1;isolation:auto;mix-blend-mode:normal;color-interpolation:sRGB;color-interpolation-filters:linearRGB;solid-color:#000000;solid-opacity:1;fill:#ffffff;fill-opacity:1;fill-rule:nonzero;stroke-width:128.44491577;marker:none;color-rendering:auto;image-rendering:auto;shape-rendering:auto;text-rendering:auto;enable-background:accumulate"
       d="m 780.32116,1006.7869 h 18.24929 v 18.2493 h -18.24929 z"
       id="path4148-9" />
    <path
       inkscape:connector-curvature="0"
       id="path4150-6"
       d="m 800.22948,986.87859 h 18.24928 v 18.24931 h -18.24928 z"
       style="color:#000000;clip-rule:nonzero;display:inline;overflow:visible;visibility:visible;opacity:1;isolation:auto;mix-blend-mode:normal;color-interpolation:sRGB;color-interpolation-filters:linearRGB;solid-color:#000000;solid-opacity:1;fill:#ffffff;fill-opacity:1;fill-rule:nonzero;stroke-width:128.44491577;marker:none;color-rendering:auto;image-rendering:auto;shape-rendering:auto;text-rendering:auto;enable-background:accumulate" />
    <path
       inkscape:connector-curvature="0"
       style="color:#000000;clip-rule:nonzero;display:inline;overflow:visible;visibility:visible;opacity:1;isolation:auto;mix-blend-mode:normal;color-interpolation:sRGB;color-interpolation-filters:linearRGB;solid-color:#000000;solid-opacity:1;fill:#ffffff;fill-opacity:1;fill-rule:nonzero;stroke-width:128.44491577;marker:none;color-rendering:auto;image-rendering:auto;shape-rendering:auto;text-rendering:auto;enable-background:accumulate"
       d="m 831.75097,986.87859 c 3.6764,0 6.63611,2.9597 6.63611,6.63611 v 11.6132 h -18.24929 v -18.24931 z"
       id="rect4152-0" />
    <path
       inkscape:connector-curvature="0"
       id="path4165-2"
       d="m 786.95727,986.87859 c -3.6764,0 -6.63611,2.9597 -6.63611,6.63611 v 11.6132 h 18.24929 v -18.24931 z"
       style="color:#000000;clip-rule:nonzero;display:inline;overflow:visible;visibility:visible;opacity:1;isolation:auto;mix-blend-mode:normal;color-interpolation:sRGB;color-interpolation-filters:linearRGB;solid-color:#000000;solid-opacity:1;fill:#ffffff;fill-opacity:1;fill-rule:nonzero;stroke-width:128.44491577;marker:none;color-rendering:auto;image-rendering:auto;shape-rendering:auto;text-rendering:auto;enable-background:accumulate" />
    <path
       inkscape:connector-curvature="0"
       id="path4167-7"
       d="m 831.75097,1044.9445 c 3.6764,0 6.63611,-2.9597 6.63611,-6.6361 v -11.6132 h -18.24929 v 18.2493 z"
       style="color:#000000;clip-rule:nonzero;display:inline;overflow:visible;visibility:visible;opacity:1;isolation:auto;mix-blend-mode:normal;color-interpolation:sRGB;color-interpolation-filters:linearRGB;solid-color:#000000;solid-opacity:1;fill:#ffffff;fill-opacity:1;fill-rule:nonzero;stroke-width:128.44491577;marker:none;color-rendering:auto;image-rendering:auto;shape-rendering:auto;text-rendering:auto;enable-background:accumulate" />
    <path
       inkscape:connector-curvature="0"
       style="color:#000000;clip-rule:nonzero;display:inline;overflow:visible;visibility:visible;opacity:1;isolation:auto;mix-blend-mode:normal;color-interpolation:sRGB;color-interpolation-filters:linearRGB;solid-color:#000000;solid-opacity:1;fill:#ffffff;fill-opacity:1;fill-rule:nonzero;stroke-width:128.44491577;marker:none;color-rendering:auto;image-rendering:auto;shape-rendering:auto;text-rendering:auto;enable-background:accumulate"
       d="m 786.95727,1044.9445 c -3.6764,0 -6.63611,-2.9597 -6.63611,-6.6361 v -11.6132 h 18.24929 v 18.2493 z"
       id="path4169-6" />
  </g>
  <path
     inkscape:connector-curvature="0"
     id="rect7854"
     d="m 31.448965,8.0111394 c -0.172525,0 -0.311417,0.138892 -0.311417,0.311418 v 0.544981 h 0.856398 v -0.856399 z m 0.622836,0 v 0.856399 h 0.856398 v -0.856399 z m 0.934252,0 v 0.856399 h 0.856399 v -0.544981 c 0,-0.172526 -0.138893,-0.311418 -0.311418,-0.311418 z m -1.868505,0.934253 v 0.856399 h 0.856398 v -0.856399 z m 1.868505,0 v 0.856399 h 0.856399 v -0.856399 z m -1.868505,0.934253 v 0.5449806 c 0,0.172525 0.138892,0.311417 0.311417,0.311417 h 0.544981 V 9.8796454 Z m 0.934253,0 v 0.8563976 h 0.856398 V 9.8796454 Z m 0.934252,0 v 0.8563976 h 0.544981 c 0.172525,0 0.311418,-0.138892 0.311418,-0.311417 V 9.8796454 Z"
     style="opacity:0.53699999;fill:#ffffff;fill-opacity:1;stroke:none;stroke-width:10.00000191;stroke-linejoin:miter;stroke-miterlimit:4;stroke-dasharray:none;stroke-opacity:1" />
  <circle
     cx="50.02"
     cy="17.481583"
     r="8.8389826"
     id="circle12-5-2"
     style="fill:#252c2d;fill-opacity:1;stroke-width:1" />
  <circle
     cx="50.02"
     cy="16.879999"
     r="8.8389826"
     id="circle12-5"
     style="fill:#6f8385;stroke-width:1;fill-opacity:1" />
  <polyline
     transform="matrix(0.5701344,0,0,0.5657503,42.869735,10.428913)"
     id="polyline878"
     points="23 4 23 10 17 10"
     style="fill:none;stroke:#000000;stroke-width:1.7607552;stroke-linecap:round;stroke-linejoin:round;stroke-miterlimit:4;stroke-dasharray:none" />
  <path
     id="path880"
     d="m 54.551789,18.915168 a 5.1312096,5.0917527 0 1 1 -1.208685,-5.295423 l 2.639722,2.466671"
     style="fill:none;stroke:#000000;stroke-width:1;stroke-linecap:round;stroke-linejoin:round;stroke-miterlimit:4;stroke-dasharray:none" />
  <path
     id="down"
     onclick="onDown()"
     d="M 2.8976694,23.227251 V 17.71195 L 13.728658,17.76069 28.786445,35.050838 H 14.523731 Z"
     style="opacity:0.54000005;fill:#ff0000;fill-opacity:1;stroke:none;stroke-width:1.00157475;stroke-miterlimit:4;stroke-dasharray:none;stroke-opacity:1" />
  <path
     id="up"
     onclick="onUp()"
     d="m 3.0031362,11.995824 v 5.515301 L 13.728658,17.462385 28.786445,0.17223681 H 3.0031531 Z"
     style="opacity:0.54000005;fill:#ff0000;fill-opacity:1;stroke:none;stroke-width:1.00157475;stroke-miterlimit:4;stroke-dasharray:none;stroke-opacity:1" />
  <path
     id="right"
     onclick="onRight()"
     d="M 27.06118,32.202333 26.748263,3.3700158 14.466925,17.549756 Z"
     style="opacity:0.54000005;fill:#ff0000;fill-opacity:1;stroke:none;stroke-width:1.00157475;stroke-miterlimit:4;stroke-dasharray:none;stroke-opacity:1" />
  <path
     id="rotate"
     onclick="turn()"
     d="m 63.576238,17.112449 -3.406244,8.627552 H 50.096718 c -4.881636,0 -8.838983,-3.956849 -8.838983,-8.838485 0,-4.881635 3.957348,-8.8385155 8.838983,-8.8385152 l 10.099641,0.052733 z"
     style="opacity:0.54000005;fill:#ff0000;fill-opacity:1;stroke-width:1"
     inkscape:connector-curvature="0"
     sodipodi:nodetypes="ccssscc" />
</svg>
