<svg xmlns="http://www.w3.org/2000/svg" xmlns:xlink="http://www.w3.org/1999/xlink" viewBox="0 0 33.87 65.17"><defs><style>.cls-1{fill:#606060;}.cls-2{fill:#bdc3c7;}.cls-3{fill:#ecf0f1;}.cls-4{fill:#7f8c8d;}.cls-5{fill:#fff;}.cls-6{fill:url(#Dégradé_sans_nom_3);}.cls-7{fill:#c2c2c2;}.cls-8{fill:#737373;}</style><linearGradient id="Dégradé_sans_nom_3" x1="693.82" y1="-502.35" x2="693.82" y2="-480.47" gradientTransform="matrix(0, 1, 1, 0, 509.13, -677.43)" gradientUnits="userSpaceOnUse"><stop offset="0.06"/><stop offset="1" stop-color="#f5f5f5"/><stop offset="1" stop-color="#fff"/></linearGradient></defs><title>full-joystick_1</title><g id="Calque_2" data-name="Calque 2"><g id="Layer_1" data-name="Layer 1"><g id="_Groupe_" data-name="&lt;Groupe&gt;"><path id="_Tracé_" data-name="&lt;Tracé&gt;" class="cls-1" d="M32.5,16.47a20.48,20.48,0,0,0-.8-5.6A16.59,16.59,0,0,0,16.3.17,16.39,16.39,0,0,0,1.1,10.87C0,13.47,0,16.67,0,19.47c0,5.3,5.7,8.6,5.4,13.2.3,4.6-5.4,7.9-5.4,13.2,0,2.8,0,6,1.1,8.6a16.53,16.53,0,0,0,15.2,10.7c6.8,0,13.3-4.3,15.4-10.7a20.48,20.48,0,0,0,.8-5.6V16.47Z"/><path id="_Tracé_2" data-name="&lt;Tracé&gt;" class="cls-2" d="M33.87,16.3a20.48,20.48,0,0,0-.8-5.6A16.59,16.59,0,0,0,17.67,0,16.39,16.39,0,0,0,2.47,10.7c-1.1,2.6-1.1,5.8-1.1,8.6,0,5.3,5.7,8.6,5.4,13.2.3,4.6-5.4,7.9-5.4,13.2,0,2.8,0,6,1.1,8.6A16.53,16.53,0,0,0,17.67,65c6.8,0,13.3-4.3,15.4-10.7a20.48,20.48,0,0,0,.8-5.6V16.3Z"/><circle id="_Tracé_3" data-name="&lt;Tracé&gt;" class="cls-3" cx="17.67" cy="16.3" r="10.8"/><circle id="_Tracé_4" data-name="&lt;Tracé&gt;" class="cls-3" cx="17.67" cy="48.7" r="10.8"/><path id="_Tracé_5" data-name="&lt;Tracé&gt;" class="cls-4" d="M17.67,31.1a1.43,1.43,0,0,0-1.4-1.4,1.37,1.37,0,0,0-1.4,1.4v2.7a1.43,1.43,0,0,0,1.4,1.4,1.37,1.37,0,0,0,1.4-1.4Z"/></g><path class="cls-5" d="M7.16,16.39A10.56,10.56,0,1,1,17.72,27.08a10.5,10.5,0,0,1-7.47-3.13A10.68,10.68,0,0,1,7.16,16.39Z"/><path d="M28.2,16.39A10.45,10.45,0,1,1,17.76,5.81a10.45,10.45,0,0,1,9.61,6.46,10.65,10.65,0,0,1,.82,4.13m.15,0A10.63,10.63,0,1,0,17.72,27.15,10.7,10.7,0,0,0,28.35,16.39Z"/><path class="cls-6" d="M28.35,16.39A10.6,10.6,0,1,1,17.77,5.65a10.6,10.6,0,0,1,9.75,6.55,10.8,10.8,0,0,1,.84,4.19m.3,0A10.94,10.94,0,1,0,17.72,27.46,11,11,0,0,0,28.65,16.39Z"/><ellipse class="cls-7" cx="17.72" cy="16.39" rx="10.48" ry="10.61"/><path class="cls-8" d="M13.24,16.39a4.48,4.48,0,1,1,4.48,4.53A4.51,4.51,0,0,1,13.24,16.39Z"/><path d="M22.12,16.39a4.41,4.41,0,1,1-4.41-4.46,4.38,4.38,0,0,1,3.12,1.31,4.46,4.46,0,0,1,1.29,3.15m.15,0A4.56,4.56,0,1,0,17.72,21,4.58,4.58,0,0,0,22.27,16.39Z"/></g></g></svg>