<?xml version="1.0" encoding="utf-8"?>
<!-- Generator: Adobe Illustrator 21.1.0, SVG Export Plug-In . SVG Version: 6.00 Build 0)  -->
<svg version="1.1" id="Layer_1" xmlns="http://www.w3.org/2000/svg" xmlns:xlink="http://www.w3.org/1999/xlink" x="0px" y="0px"
	 viewBox="0 0 96 96" style="enable-background:new 0 0 96 96;" xml:space="preserve">
<style type="text/css">
	.st0{fill:#95A5A6;}
	.st1{fill:#BDC3C7;}
	.st2{fill:#ECF0F1;}
	.st3{fill:#7F8C8D;}
	.st4{fill:#FFFFFF;}
	.st5{fill:url(#SVGID_1_);}
	.st6{fill:#C2C2C2;}
	.st7{fill:url(#SVGID_2_);}
	.st8{fill:#737373;}
</style>
<g>
	<g id="XMLID_1_">
		<path id="XMLID_3_" class="st0" d="M25.8,37.3c-1.9,0-3.9,0.3-5.6,0.8c-6.3,2.2-10.7,8.7-10.7,15.4c0,6.5,4.3,13,10.7,15.2
			c2.6,1.1,5.8,1.1,8.6,1.1c5.3,0,8.6-5.7,13.2-5.4c4.6-0.3,7.9,5.4,13.2,5.4c2.8,0,6,0,8.6-1.1c6.3-2.2,10.7-8.7,10.7-15.2
			c0-6.8-4.3-13.3-10.7-15.4c-1.7-0.5-3.7-0.8-5.6-0.8h-3H28.8h-2.1C26.7,37.3,25.8,37.3,25.8,37.3z"/>
		<path id="XMLID_4_" class="st1" d="M25.8,34.6c-1.9,0-3.9,0.3-5.6,0.8c-6.3,2.2-10.7,8.7-10.7,15.4c0,6.5,4.3,13,10.7,15.2
			c2.6,1.1,5.8,1.1,8.6,1.1c5.3,0,8.6-5.7,13.2-5.4c4.6-0.3,7.9,5.4,13.2,5.4c2.8,0,6,0,8.6-1.1c6.3-2.2,10.7-8.7,10.7-15.2
			c0-6.8-4.3-13.3-10.7-15.4c-1.7-0.5-3.7-0.8-5.6-0.8h-3H28.8h-2.1C26.7,34.6,25.8,34.6,25.8,34.6z"/>
		<circle id="XMLID_5_" class="st2" cx="25.8" cy="50.8" r="10.8"/>
		<circle id="XMLID_7_" class="st2" cx="58.2" cy="50.8" r="10.8"/>
		<path id="XMLID_12_" class="st3" d="M40.6,50.8c-0.7,0-1.4,0.6-1.4,1.4s0.6,1.4,1.4,1.4h2.7c0.7,0,1.4-0.6,1.4-1.4
			s-0.6-1.4-1.4-1.4H40.6z"/>
	</g>
	<g>
		<title>joystick</title>
		<path class="st4" d="M25.9,61.3c-5.9,0-10.7-4.7-10.7-10.6c0-5.8,4.8-10.6,10.7-10.6c5.9,0,10.7,4.7,10.7,10.6
			c0,2.8-1.1,5.5-3.1,7.5C31.4,60.2,28.7,61.3,25.9,61.3z"/>
		<path d="M25.9,40.3c5.8,0,10.6,4.7,10.6,10.5s-4.7,10.4-10.6,10.4s-10.6-4.7-10.6-10.5c0-4.2,2.5-8,6.5-9.6
			C23.1,40.5,24.5,40.3,25.9,40.3 M25.9,40.1c-5.9,0-10.8,4.8-10.8,10.6S20,61.4,25.9,61.4s10.8-4.8,10.8-10.6S31.8,40.1,25.9,40.1z
			"/>
		
			<linearGradient id="SVGID_1_" gradientUnits="userSpaceOnUse" x1="715.5531" y1="-478.6475" x2="715.5531" y2="-456.7725" gradientTransform="matrix(1 0 0 -1 -689.66 -416.96)">
			<stop  offset="6.000000e-02" style="stop-color:#000000"/>
			<stop  offset="1" style="stop-color:#F5F5F5"/>
			<stop  offset="1" style="stop-color:#FFFFFF"/>
		</linearGradient>
		<path class="st5" d="M25.9,40.1c5.9,0,10.7,4.8,10.7,10.6c0,5.9-4.8,10.6-10.7,10.6c-5.9,0-10.7-4.8-10.7-10.6
			c0-4.3,2.6-8.1,6.6-9.7C23,40.4,24.5,40.1,25.9,40.1 M25.9,39.8c-6.1,0-11.1,4.9-11.1,10.9s5,10.9,11.1,10.9S37,56.8,37,50.8
			S32,39.8,25.9,39.8z"/>
		<ellipse class="st6" cx="25.9" cy="50.8" rx="10.6" ry="10.5"/>
		
			<linearGradient id="SVGID_2_" gradientUnits="userSpaceOnUse" x1="715.5531" y1="-478.1918" x2="715.5531" y2="-457.2282" gradientTransform="matrix(1 0 0 -1 -689.66 -416.96)">
			<stop  offset="0" style="stop-color:#FFFFFF"/>
			<stop  offset="0.87" style="stop-color:#000000"/>
		</linearGradient>
		<path class="st7" d="M25.9,40.6c5.7,0,10.3,4.6,10.3,10.2c0,5.6-4.6,10.1-10.3,10.1c-5.7,0-10.3-4.6-10.3-10.2
			c0-4.1,2.5-7.7,6.3-9.3C23.2,40.8,24.5,40.6,25.9,40.6 M25.9,40.3c-5.9,0-10.6,4.7-10.6,10.5S20,61.2,25.9,61.2
			s10.6-4.7,10.6-10.5S31.8,40.3,25.9,40.3z"/>
		<path class="st8" d="M25.9,55.2c-2.5,0-4.5-2-4.5-4.5s2-4.5,4.5-4.5s4.5,2,4.5,4.5S28.4,55.2,25.9,55.2z"/>
		<path d="M25.9,46.3c2.5,0,4.5,2,4.5,4.4c0,2.4-2,4.4-4.5,4.4c-2.5,0-4.5-2-4.5-4.4c0-1.2,0.5-2.3,1.3-3.1
			C23.6,46.8,24.7,46.3,25.9,46.3 M25.9,46.2c-2.5,0-4.6,2-4.6,4.6s2.1,4.6,4.6,4.6s4.6-2,4.6-4.6S28.4,46.2,25.9,46.2z"/>
	</g>
</g>
</svg>
