<?xml version="1.0" encoding="utf-8"?>
<!-- Generator: Adobe Illustrator 21.1.0, SVG Export Plug-In . SVG Version: 6.00 Build 0)  -->
<svg version="1.1" id="Layer_1" xmlns="http://www.w3.org/2000/svg" xmlns:xlink="http://www.w3.org/1999/xlink" x="0px" y="0px"
	 viewBox="0 0 96 96" style="enable-background:new 0 0 96 96;" xml:space="preserve">
<style type="text/css">
	.st0{fill:#606060;}
	.st1{fill:#BDC3C7;}
	.st2{fill:#ECF0F1;}
	.st3{fill:#7F8C8D;}
	.st4{fill:#FFFFFF;}
	.st5{fill:url(#SVGID_1_);}
	.st6{fill:#C2C2C2;}
	.st7{fill:#737373;}
</style>
<g>
	<g id="XMLID_1_">
		<path id="XMLID_3_" class="st0" d="M35.8,17.7c0-1.9-0.3-3.9-0.8-5.6C32.8,5.8,26.3,1.4,19.6,1.4c-6.5,0-13,4.3-15.2,10.7
			c-1.1,2.6-1.1,5.8-1.1,8.6c0,5.3,5.7,8.6,5.4,13.2c0.3,4.6-5.4,7.9-5.4,13.2c0,2.8,0,6,1.1,8.6c2.2,6.3,8.7,10.7,15.2,10.7
			c6.8,0,13.3-4.3,15.4-10.7c0.5-1.7,0.8-3.7,0.8-5.6v-3V20.7v-2.1C35.8,18.6,35.8,17.7,35.8,17.7z"/>
		<path id="XMLID_4_" class="st1" d="M37.2,17.6c0-1.9-0.3-3.9-0.8-5.6C34.2,5.7,27.7,1.3,21,1.3C14.5,1.3,8,5.6,5.8,12
			c-1.1,2.6-1.1,5.8-1.1,8.6c0,5.3,5.7,8.6,5.4,13.2c0.3,4.6-5.4,7.9-5.4,13.2c0,2.8,0,6,1.1,8.6C8,61.9,14.5,66.3,21,66.3
			c6.8,0,13.3-4.3,15.4-10.7c0.5-1.7,0.8-3.7,0.8-5.6v-3V20.6v-2.1C37.2,18.5,37.2,17.6,37.2,17.6z"/>
		<circle id="XMLID_5_" class="st2" cx="21" cy="17.6" r="10.8"/>
		<circle id="XMLID_7_" class="st2" cx="21" cy="50" r="10.8"/>
		<path id="XMLID_12_" class="st3" d="M21,32.4c0-0.7-0.6-1.4-1.4-1.4s-1.4,0.6-1.4,1.4v2.7c0,0.7,0.6,1.4,1.4,1.4s1.4-0.6,1.4-1.4
			V32.4z"/>
	</g>
	<g>
		<title>joystick</title>
		<path class="st4" d="M10.5,17.7C10.5,11.8,15.2,7,21,7c5.8,0,10.6,4.8,10.6,10.7c0,5.9-4.7,10.7-10.6,10.7c-2.8,0-5.5-1.1-7.5-3.1
			C11.6,23.2,10.5,20.5,10.5,17.7z"/>
		<path d="M31.5,17.7c0,5.8-4.7,10.6-10.5,10.6c-5.8,0-10.4-4.7-10.4-10.6c0-5.8,4.7-10.6,10.5-10.6c4.2,0,8,2.5,9.6,6.5
			C31.2,14.9,31.5,16.3,31.5,17.7 M31.7,17.7c0-5.9-4.8-10.8-10.6-10.8s-10.6,4.8-10.6,10.8S15.2,28.4,21,28.4S31.7,23.6,31.7,17.7z
			"/>
		
			<linearGradient id="SVGID_1_" gradientUnits="userSpaceOnUse" x1="697.1365" y1="-501.0642" x2="697.1365" y2="-479.1892" gradientTransform="matrix(-1.346898e-10 1 1 1.346898e-10 511.16 -679.46)">
			<stop  offset="6.000000e-02" style="stop-color:#000000"/>
			<stop  offset="1" style="stop-color:#F5F5F5"/>
			<stop  offset="1" style="stop-color:#FFFFFF"/>
		</linearGradient>
		<path class="st5" d="M31.7,17.7c0,5.9-4.8,10.7-10.6,10.7c-5.9,0-10.6-4.8-10.6-10.7c0-5.9,4.8-10.7,10.6-10.7
			c4.3,0,8.1,2.6,9.7,6.6C31.4,14.8,31.7,16.2,31.7,17.7 M32,17.7C32,11.6,27.1,6.6,21,6.6s-10.9,5-10.9,11.1S15,28.7,21,28.7
			S32,23.8,32,17.7z"/>
		<ellipse class="st6" cx="21" cy="17.7" rx="10.5" ry="10.6"/>
		<path class="st7" d="M16.6,17.7c0-2.5,2-4.5,4.5-4.5s4.5,2,4.5,4.5s-2,4.5-4.5,4.5C18.6,22.2,16.6,20.2,16.6,17.7z"/>
		<path d="M25.4,17.7c0,2.5-2,4.5-4.4,4.5s-4.4-2-4.4-4.5c0-2.5,2-4.5,4.4-4.5c1.2,0,2.3,0.5,3.1,1.3C25,15.4,25.4,16.5,25.4,17.7
			 M25.6,17.7c0-2.5-2-4.6-4.6-4.6s-4.6,2.1-4.6,4.6s2,4.6,4.6,4.6S25.6,20.2,25.6,17.7z"/>
	</g>
</g>
</svg>
