<?xml version="1.0" encoding="utf-8"?>
<!-- Generator: Adobe Illustrator 21.1.0, SVG Export Plug-In . SVG Version: 6.00 Build 0)  -->
<svg version="1.1" id="Layer_1" xmlns="http://www.w3.org/2000/svg" xmlns:xlink="http://www.w3.org/1999/xlink" x="0px" y="0px"
	 viewBox="0 0 96 96" style="enable-background:new 0 0 96 96;" xml:space="preserve">
<style type="text/css">
	.st0{fill:#95A5A6;}
	.st1{fill:#BDC3C7;}
	.st2{fill:#ECF0F1;}
	.st3{fill:#7F8C8D;}
	.st4{fill:#27AE60;}
	.st5{fill:#F39C12;}
	.st6{fill:#2980B9;}
	.st7{fill:#C0392B;}
</style>
<g id="XMLID_1_">
	<path id="XMLID_3_" class="st0" d="M25.8,37.3c-1.9,0-3.9,0.3-5.6,0.8c-6.3,2.2-10.7,8.7-10.7,15.4c0,6.5,4.3,13,10.7,15.2
		c2.6,1.1,5.8,1.1,8.6,1.1c5.3,0,8.6-5.7,13.2-5.4c4.6-0.3,7.9,5.4,13.2,5.4c2.8,0,6,0,8.6-1.1c6.3-2.2,10.7-8.7,10.7-15.2
		c0-6.8-4.3-13.3-10.7-15.4c-1.7-0.5-3.7-0.8-5.6-0.8h-3H28.8h-2.1C26.7,37.3,25.8,37.3,25.8,37.3z"/>
	<path id="XMLID_4_" class="st1" d="M25.8,34.6c-1.9,0-3.9,0.3-5.6,0.8c-6.3,2.2-10.7,8.7-10.7,15.4c0,6.5,4.3,13,10.7,15.2
		c2.6,1.1,5.8,1.1,8.6,1.1c5.3,0,8.6-5.7,13.2-5.4c4.6-0.3,7.9,5.4,13.2,5.4c2.8,0,6,0,8.6-1.1c6.3-2.2,10.7-8.7,10.7-15.2
		c0-6.8-4.3-13.3-10.7-15.4c-1.7-0.5-3.7-0.8-5.6-0.8h-3H28.8h-2.1H25.8z"/>
	<circle id="XMLID_5_" class="st2" cx="25.8" cy="50.8" r="10.8"/>
	<path id="XMLID_6_" class="st3" d="M25.8,42.7c-1.5,0-2.7,1.1-2.7,2.7v2.7h-2.7c-1.5,0-2.7,1.1-2.7,2.7c0,1.4,1.2,2.7,2.7,2.7H23
		v2.7c0,1.4,1.2,2.7,2.7,2.7s2.7-1.4,2.7-2.7v-2.7h2.7c1.5,0,2.7-1.4,2.7-2.7c0-1.6-1.2-2.7-2.7-2.7h-2.7v-2.7
		C28.5,43.8,27.2,42.7,25.8,42.7z"/>
	<circle id="XMLID_7_" class="st2" cx="58.2" cy="50.8" r="10.8"/>
	<circle id="XMLID_8_" class="st4" cx="52.8" cy="50.8" r="2.7"/>
	<circle id="XMLID_9_" class="st5" cx="58.2" cy="56.3" r="2.7"/>
	<circle id="XMLID_10_" class="st6" cx="58.2" cy="45.4" r="2.7"/>
	<circle id="XMLID_11_" class="st7" cx="63.7" cy="50.8" r="2.7"/>
	<path id="XMLID_12_" class="st3" d="M40.6,50.8c-0.7,0-1.4,0.6-1.4,1.4s0.6,1.4,1.4,1.4h2.7c0.7,0,1.4-0.6,1.4-1.4
		s-0.6-1.4-1.4-1.4H40.6z"/>
</g>
</svg>
