<svg id="Calque_1" data-name="Calque 1" xmlns="http://www.w3.org/2000/svg" xmlns:xlink="http://www.w3.org/1999/xlink" viewBox="0 0 720 720"><defs><style>.cls-1{fill:#fff;}.cls-2{fill:url(#Dégradé_sans_nom_51);}.cls-3{fill:#c2c2c2;}.cls-4{fill:url(#Dégradé_sans_nom_19);}.cls-5{fill:#737373;}</style><linearGradient id="Dégradé_sans_nom_51" x1="800" y1="860" x2="800" y2="140" gradientUnits="userSpaceOnUse"><stop offset="0.06"/><stop offset="1" stop-color="#f5f5f5"/><stop offset="1" stop-color="#fff"/></linearGradient><linearGradient id="Dégradé_sans_nom_19" x1="800" y1="845" x2="800" y2="155" gradientUnits="userSpaceOnUse"><stop offset="0" stop-color="#fff"/><stop offset="0.87"/></linearGradient></defs><title>joystick</title><path class="cls-1" d="M800,847.5a347.5,347.5,0,1,1,245.72-101.78A345.23,345.23,0,0,1,800,847.5Z" transform="translate(-440 -140)"/><path d="M800,155a343.91,343.91,0,1,1-134.29,27.11A342.83,342.83,0,0,1,800,155m0-5c-193.3,0-350,156.7-350,350S606.7,850,800,850s350-156.7,350-350S993.3,150,800,150Z" transform="translate(-440 -140)"/><path class="cls-2" d="M800,150a348.87,348.87,0,1,1-136.23,27.5A347.8,347.8,0,0,1,800,150m0-10c-198.82,0-360,161.18-360,360S601.18,860,800,860s360-161.18,360-360S998.82,140,800,140Z" transform="translate(-440 -140)"/><circle class="cls-3" cx="360" cy="360" r="345"/><path class="cls-4" d="M800,165a333.92,333.92,0,1,1-130.39,26.32A332.89,332.89,0,0,1,800,165m0-10c-190.54,0-345,154.46-345,345S609.46,845,800,845s345-154.46,345-345S990.54,155,800,155Z" transform="translate(-440 -140)"/><path class="cls-5" d="M800,647.5c-81.33,0-147.5-66.17-147.5-147.5S718.67,352.5,800,352.5,947.5,418.67,947.5,500,881.33,647.5,800,647.5Z" transform="translate(-440 -140)"/><path d="M800,355a145,145,0,1,1-102.53,42.47A144.05,144.05,0,0,1,800,355m0-5A150,150,0,1,0,950,500,150,150,0,0,0,800,350Z" transform="translate(-440 -140)"/><polygon class="cls-1" points="361.5 90 326.5 160 396.5 160 361.5 90"/><polygon points="639 361 569 396 569 326 639 361"/><polygon points="360.5 635 325.5 565 395.5 565 360.5 635"/><polygon points="77 361 147 326 147 396 77 361"/></svg>