<svg xmlns="http://www.w3.org/2000/svg" xmlns:xlink="http://www.w3.org/1999/xlink" viewBox="0 0 640.34 125.67"><defs><style>.cls-1{fill:#6aa917;}.cls-2{fill:#fc0;}.cls-3{fill:#632181;}.cls-4{fill:#f42e0b;}.cls-5{fill:#f60;}.cls-6{fill:#f02584;}.cls-7{fill:#aad400;}.cls-8{fill:#06f;}.cls-9{fill:url(#Dégradé_sans_nom_187);}.cls-10{fill:url(#Dégradé_sans_nom_7);}.cls-11{fill:url(#Dégradé_sans_nom_11);}.cls-12{fill:url(#Dégradé_sans_nom_4);}.cls-13{font-size:66.23px;font-family:Oxygen-Light, Oxygen;letter-spacing:-0.01em;}.cls-14{letter-spacing:-0.01em;}.cls-15,.cls-16,.cls-17{fill:#666;}.cls-15{letter-spacing:-0.01em;}.cls-16{letter-spacing:-0.02em;}</style><linearGradient id="Dégradé_sans_nom_187" x1="4.65" y1="5.19" x2="46.63" y2="47.17" gradientUnits="userSpaceOnUse"><stop offset="0.01" stop-color="#fff" stop-opacity="0.4"/><stop offset="0.3" stop-color="#fff" stop-opacity="0.41"/><stop offset="0.4" stop-color="#fff" stop-opacity="0.43"/><stop offset="0.48" stop-color="#fff" stop-opacity="0.48"/><stop offset="0.5" stop-color="#fff" stop-opacity="0.5"/><stop offset="0.57" stop-color="#fff" stop-opacity="0.42"/><stop offset="0.7" stop-color="#fff" stop-opacity="0.2"/><stop offset="0.75" stop-color="#fff" stop-opacity="0.12"/><stop offset="1" stop-color="#fff" stop-opacity="0"/></linearGradient><linearGradient id="Dégradé_sans_nom_7" x1="47.32" y1="122.33" x2="47.32" y2="93.59" gradientUnits="userSpaceOnUse"><stop offset="0" stop-color="#6aa917" stop-opacity="0"/><stop offset="1" stop-color="#6aa917" stop-opacity="0.4"/></linearGradient><linearGradient id="Dégradé_sans_nom_11" x1="78.68" y1="122.33" x2="78.68" y2="93.59" gradientUnits="userSpaceOnUse"><stop offset="0" stop-color="#aad400" stop-opacity="0"/><stop offset="1" stop-color="#aad400" stop-opacity="0.6"/></linearGradient><linearGradient id="Dégradé_sans_nom_4" x1="15.97" y1="122.33" x2="15.97" y2="93.59" gradientUnits="userSpaceOnUse"><stop offset="0" stop-color="#06f" stop-opacity="0"/><stop offset="1" stop-color="#06f" stop-opacity="0.4"/></linearGradient></defs><title>logo_frontage</title><g id="Logo_perspective" data-name="Logo perspective"><g id="Perspective"><path id="rect3341" class="cls-1" d="M33,64.84H61.69V93.59H33Z"/><path id="path4146" class="cls-2" d="M64.31,33.49H93.05V62.23H64.31Z"/><path id="path4148" class="cls-3" d="M1.59,33.49H30.34V62.23H1.59Z"/><path id="path4150" class="cls-4" d="M33,2.13H61.69V30.87H33Z"/><path id="rect4152" class="cls-5" d="M82.6,2.13A10.43,10.43,0,0,1,93.05,12.58V30.87H64.31V2.13Z"/><path id="path4165" class="cls-6" d="M12,2.13A10.43,10.43,0,0,0,1.59,12.58V30.87H30.34V2.13Z"/><path id="path4167" class="cls-7" d="M82.6,93.59A10.43,10.43,0,0,0,93.05,83.14V64.84H64.31V93.59Z"/><path id="path4169" class="cls-8" d="M12,93.59A10.43,10.43,0,0,1,1.59,83.14V64.84H30.34V93.59Z"/><path class="cls-9" d="M82.88,2.13h-71A10.43,10.43,0,0,0,1.6,12.31v71.3A10.31,10.31,0,0,0,4,89.81L89.21,4.48A10.51,10.51,0,0,0,82.88,2.13Z"/><path id="rect3341-2" data-name="rect3341" class="cls-10" d="M33,122.33H61.69V93.59H33Z"/><path id="path4167-2" data-name="path4167" class="cls-11" d="M82.6,93.59A10.43,10.43,0,0,1,93.05,104v18.29H64.31V93.59Z"/><path id="path4169-2" data-name="path4169" class="cls-12" d="M12,93.59A10.43,10.43,0,0,0,1.59,104v18.29H30.34V93.59Z"/></g></g><g id="EXPORT"><text class="cls-13" transform="translate(113.35 72.51)">Ar<tspan class="cls-14" x="63.46" y="0">b</tspan><tspan x="101.03" y="0">alet </tspan><tspan class="cls-15" x="224.51" y="0">F</tspan><tspan class="cls-16" x="257.2" y="0">r</tspan><tspan class="cls-17" x="279.24" y="0">ontage</tspan></text></g></svg>