<svg xmlns="http://www.w3.org/2000/svg" xmlns:xlink="http://www.w3.org/1999/xlink" viewBox="0 0 181.75 133.85"><defs><style>.cls-1{isolation:isolate;}.cls-2{fill:url(#Dégradé_sans_nom_7);}.cls-3{fill:url(#Dégradé_sans_nom_11);}.cls-4{fill:url(#Dégradé_sans_nom_4);}.cls-5{fill:#f02584;}.cls-6{fill:#f42e0b;}.cls-7{fill:#f60;}.cls-8{fill:#632181;}.cls-9{fill:#fc0;}.cls-10{fill:#06f;}.cls-11{fill:#6aa917;}.cls-12{fill:#aad400;}.cls-13,.cls-15,.cls-17,.cls-18,.cls-19,.cls-20,.cls-21,.cls-22,.cls-23,.cls-24,.cls-25,.cls-26{opacity:0.61;}.cls-13,.cls-15,.cls-19,.cls-20,.cls-21,.cls-22,.cls-23,.cls-24,.cls-25,.cls-26{mix-blend-mode:lighten;}.cls-13{fill:url(#Dégradé_sans_nom_43);}.cls-14,.cls-16{fill:#fff;}.cls-14{opacity:0.55;mix-blend-mode:hard-light;}.cls-15{fill:url(#Dégradé_sans_nom_63);}.cls-16{opacity:0.29;}.cls-16,.cls-17,.cls-18{mix-blend-mode:exclusion;}.cls-17{fill:url(#Dégradé_sans_nom_148);}.cls-18{fill:url(#Dégradé_sans_nom_43-2);}.cls-19{fill:url(#Dégradé_sans_nom_126);}.cls-20{fill:url(#Dégradé_sans_nom_126-2);}.cls-21{fill:url(#Dégradé_sans_nom_126-3);}.cls-22{fill:url(#Dégradé_sans_nom_126-4);}.cls-23{fill:url(#Dégradé_sans_nom_126-5);}.cls-24{fill:url(#Dégradé_sans_nom_126-6);}.cls-25{fill:url(#Dégradé_sans_nom_126-7);}.cls-26{fill:url(#Dégradé_sans_nom_126-8);}</style><linearGradient id="Dégradé_sans_nom_7" x1="100.17" y1="126.34" x2="100.17" y2="115.68" gradientUnits="userSpaceOnUse"><stop offset="0" stop-color="#6aa917" stop-opacity="0"/><stop offset="1" stop-color="#6aa917" stop-opacity="0.4"/></linearGradient><linearGradient id="Dégradé_sans_nom_11" x1="137.76" y1="123.81" x2="137.76" y2="115.68" gradientUnits="userSpaceOnUse"><stop offset="0" stop-color="#aad400" stop-opacity="0"/><stop offset="1" stop-color="#aad400" stop-opacity="0.6"/></linearGradient><linearGradient id="Dégradé_sans_nom_4" x1="52.35" y1="131.18" x2="52.35" y2="115.68" gradientUnits="userSpaceOnUse"><stop offset="0" stop-color="#06f" stop-opacity="0"/><stop offset="1" stop-color="#06f" stop-opacity="0.4"/></linearGradient><linearGradient id="Dégradé_sans_nom_43" x1="2.23" y1="67.51" x2="17.48" y2="52.27" gradientUnits="userSpaceOnUse"><stop offset="0" stop-color="#fff" stop-opacity="0"/><stop offset="0.19" stop-color="#fff" stop-opacity="0.05"/><stop offset="0.54" stop-color="#fff" stop-opacity="0.19"/><stop offset="1" stop-color="#fff" stop-opacity="0.4"/></linearGradient><linearGradient id="Dégradé_sans_nom_63" x1="2.23" y1="31.83" x2="17.47" y2="16.58" gradientUnits="userSpaceOnUse"><stop offset="0" stop-color="#fff" stop-opacity="0"/><stop offset="0.56" stop-color="#fff" stop-opacity="0.22"/><stop offset="1" stop-color="#fff" stop-opacity="0.4"/></linearGradient><linearGradient id="Dégradé_sans_nom_148" x1="83.5" y1="82.92" x2="48.44" y2="82.92" gradientUnits="userSpaceOnUse"><stop offset="0" stop-color="#fff" stop-opacity="0"/><stop offset="0.15" stop-color="#fff" stop-opacity="0.01"/><stop offset="0.27" stop-color="#fff" stop-opacity="0.05"/><stop offset="0.38" stop-color="#fff" stop-opacity="0.11"/><stop offset="0.48" stop-color="#fff" stop-opacity="0.2"/><stop offset="0.51" stop-color="#fff" stop-opacity="0.24"/><stop offset="0.57" stop-color="#fff" stop-opacity="0.34"/><stop offset="0.71" stop-color="#fff" stop-opacity="0.54"/><stop offset="0.84" stop-color="#fff" stop-opacity="0.68"/><stop offset="0.94" stop-color="#fff" stop-opacity="0.77"/><stop offset="1" stop-color="#fff" stop-opacity="0.8"/></linearGradient><linearGradient id="Dégradé_sans_nom_43-2" x1="83.58" y1="68.3" x2="98.83" y2="53.05" xlink:href="#Dégradé_sans_nom_43"/><linearGradient id="Dégradé_sans_nom_126" x1="38.46" y1="42.76" x2="18.83" y2="8.75" gradientUnits="userSpaceOnUse"><stop offset="0" stop-color="#fff" stop-opacity="0"/><stop offset="0.26" stop-color="#fff" stop-opacity="0.01"/><stop offset="0.36" stop-color="#fff" stop-opacity="0.03"/><stop offset="0.42" stop-color="#fff" stop-opacity="0.08"/><stop offset="0.48" stop-color="#fff" stop-opacity="0.15"/><stop offset="0.5" stop-color="#fff" stop-opacity="0.18"/><stop offset="0.51" stop-color="#fff" stop-opacity="0.24"/><stop offset="0.54" stop-color="#fff" stop-opacity="0.36"/><stop offset="0.57" stop-color="#fff" stop-opacity="0.47"/><stop offset="0.61" stop-color="#fff" stop-opacity="0.55"/><stop offset="0.65" stop-color="#fff" stop-opacity="0.62"/><stop offset="0.71" stop-color="#fff" stop-opacity="0.67"/><stop offset="0.79" stop-color="#fff" stop-opacity="0.69"/><stop offset="1" stop-color="#fff" stop-opacity="0.7"/></linearGradient><linearGradient id="Dégradé_sans_nom_126-2" x1="38.38" y1="78.44" x2="18.74" y2="44.44" xlink:href="#Dégradé_sans_nom_126"/><linearGradient id="Dégradé_sans_nom_126-3" x1="79.13" y1="42.76" x2="59.49" y2="8.75" xlink:href="#Dégradé_sans_nom_126"/><linearGradient id="Dégradé_sans_nom_126-4" x1="119.79" y1="42.72" x2="100.16" y2="8.72" xlink:href="#Dégradé_sans_nom_126"/><linearGradient id="Dégradé_sans_nom_126-5" x1="38.38" y1="117.13" x2="18.74" y2="83.13" xlink:href="#Dégradé_sans_nom_126"/><linearGradient id="Dégradé_sans_nom_126-6" x1="79.44" y1="117.13" x2="59.8" y2="83.13" xlink:href="#Dégradé_sans_nom_126"/><linearGradient id="Dégradé_sans_nom_126-7" x1="119.79" y1="79.22" x2="100.16" y2="45.22" xlink:href="#Dégradé_sans_nom_126"/><linearGradient id="Dégradé_sans_nom_126-8" x1="119.79" y1="117.13" x2="100.16" y2="83.13" xlink:href="#Dégradé_sans_nom_126"/></defs><title>logo Yoan</title><g class="cls-1"><g id="Rubik_s_Cub" data-name="Rubik&apos;s Cub"><path id="rect3341" class="cls-2" d="M103.28,126.34,145,124l-61.07-8.29H55.38Z"/><path id="path4167" class="cls-3" d="M107.6,115.68c3.68,0,13,.66,22.51,1.62l49.68,5-22.34,1.45-61.72-8.13Z"/><path id="path4169" class="cls-4" d="M43.76,115.68H15l6,15.5,68.65-4.55Z"/><path id="path4165" class="cls-5" d="M43,11.38H14.27V40.13H43Z"/><path id="path4165-2" data-name="path4165" class="cls-5" d="M12.27,11.38V40.13L5.94,35.54,5.87,9.84"/><path id="path4165-3" data-name="path4165" class="cls-5" d="M42.93,9.46,14.27,9.38,7.87,7.84l26.5-.07Z"/><path id="path4165-4" data-name="path4165" class="cls-6" d="M83.68,11.35H54.94V40.09H83.68Z"/><path id="path4165-5" data-name="path4165" class="cls-6" d="M52.94,11.35V40.09L46.6,35.51l-.07-25.7"/><path id="path4165-6" data-name="path4165" class="cls-6" d="M83.6,9.43,54.94,9.35l-6.4-1.54L75,7.74Z"/><path id="path4165-7" data-name="path4165" class="cls-7" d="M124.35,11.38H95.61V40.12h28.74Z"/><path id="path4165-8" data-name="path4165" class="cls-7" d="M93.61,11.38V40.12l-6.34-4.59L87.2,9.84"/><path id="path4165-9" data-name="path4165" class="cls-7" d="M124.26,9.46,95.61,9.38,89.2,7.84l26.5-.07Z"/><path id="path4165-10" data-name="path4165" class="cls-8" d="M43,47.07H14.28V75.81H43Z"/><path id="path4165-11" data-name="path4165" class="cls-8" d="M12.28,47.07V75.81L5.94,71.22l-.07-25.7"/><path id="path4165-12" data-name="path4165" class="cls-8" d="M41.94,45.15l-28.66-.08-6.4-1.54,26.5-.07Z"/><path id="path4165-13" data-name="path4165" class="cls-9" d="M124.38,47.85H95.63V76.59h28.74Z"/><path id="path4165-14" data-name="path4165" class="cls-9" d="M93.63,47.85V76.59L87.3,72l-.07-25.7"/><path id="path4165-15" data-name="path4165" class="cls-9" d="M123.29,45.93l-28.66-.08-6.4-1.54,26.5-.07Z"/><path id="path4165-16" data-name="path4165" class="cls-10" d="M43,85.72H14.3v28.74H43Z"/><path id="path4165-17" data-name="path4165" class="cls-10" d="M12.3,85.72v28.74L6,109.87,5.9,84.18"/><path id="path4165-18" data-name="path4165" class="cls-10" d="M43,83.8,14.3,83.72,7.9,82.18l26.5-.07Z"/><path id="path4165-19" data-name="path4165" class="cls-11" d="M84,85.72H55.25v28.74H84Z"/><path id="path4165-20" data-name="path4165" class="cls-11" d="M53.25,85.72v28.74l-6.34-4.59-.07-25.7"/><path id="path4165-21" data-name="path4165" class="cls-11" d="M83.91,83.8l-28.66-.08-6.4-1.54,26.5-.07Z"/><path id="path4165-22" data-name="path4165" class="cls-12" d="M124.38,85.76H95.63V114.5H114a10.4,10.4,0,0,0,10.4-10.4Z"/><path id="path4165-23" data-name="path4165" class="cls-12" d="M93.63,85.76V114.5l-6.34-4.59-.07-25.7"/><path id="path4165-24" data-name="path4165" class="cls-12" d="M124.29,83.84l-28.66-.08-6.4-1.54,26.5-.07Z"/><path id="path4165-25" data-name="path4165" class="cls-13" d="M12.28,47.07V75.81L5.94,71.22l-.07-25.7"/><path id="path4165-26" data-name="path4165" class="cls-14" d="M42.93,9.46,14.27,9.38,7.87,7.84l26.5-.07Z"/><path id="path4165-27" data-name="path4165" class="cls-15" d="M12.27,11.38V40.13L5.94,35.54,5.87,9.84"/><path id="path4165-28" data-name="path4165" class="cls-14" d="M83.58,9.43,54.92,9.35l-6.4-1.54L75,7.74Z"/><path id="path4165-29" data-name="path4165" class="cls-14" d="M124.26,9.46,95.61,9.38,89.2,7.84l26.5-.07Z"/><path id="path4165-30" data-name="path4165" class="cls-16" d="M12.3,85.72v28.74L6,109.87,5.9,84.18"/><path id="path4165-31" data-name="path4165" class="cls-16" d="M123.29,45.93l-28.66-.08-6.4-1.54,26.5-.07Z"/><path id="path4165-32" data-name="path4165" class="cls-16" d="M41.94,45.14l-28.66-.08-6.4-1.54,26.5-.07Z"/><path id="path4165-33" data-name="path4165" class="cls-16" d="M43,83.8,14.3,83.72,7.9,82.18l26.5-.07Z"/><path id="path4165-34" data-name="path4165" class="cls-17" d="M83.5,83.77l-28.66-.08-6.4-1.54,26.5-.07Z"/><path id="path4165-35" data-name="path4165" class="cls-16" d="M124.29,83.84l-28.66-.08-6.4-1.54,26.5-.07Z"/><path id="path4165-36" data-name="path4165" class="cls-18" d="M93.63,47.85V76.59L87.3,72l-.07-25.7"/><path id="path4165-37" data-name="path4165" class="cls-16" d="M93.61,11.38V40.12l-6.34-4.59L87.2,9.84"/><path id="path4165-38" data-name="path4165" class="cls-16" d="M93.63,85.76V114.5l-6.34-4.59-.07-25.7"/><path id="path4165-39" data-name="path4165" class="cls-16" d="M53.25,85.76V114.5l-6.34-4.59-.07-25.7"/><path id="path4165-40" data-name="path4165" class="cls-16" d="M52.94,11.38V40.13L46.6,35.54l-.07-25.7"/><path id="path4165-41" data-name="path4165" class="cls-19" d="M43,11.38H14.27V40.13H43Z"/><path id="path4165-42" data-name="path4165" class="cls-20" d="M42.93,47.07H14.19V75.81H42.93Z"/><path id="path4165-43" data-name="path4165" class="cls-21" d="M83.68,11.38H54.94V40.13H83.68Z"/><path id="path4165-44" data-name="path4165" class="cls-22" d="M124.35,11.35H95.61V40.09h28.74Z"/><path id="path4165-45" data-name="path4165" class="cls-23" d="M42.93,85.76H14.19V114.5H42.93Z"/><path id="path4165-46" data-name="path4165" class="cls-24" d="M84,85.76H55.25V114.5H84Z"/><path id="path4165-47" data-name="path4165" class="cls-25" d="M124.35,47.85H95.61V76.59h28.74Z"/><path id="path4165-48" data-name="path4165" class="cls-26" d="M124.35,85.76H95.61V114.5h28.74Z"/></g></g></svg>