<?xml version="1.0" ?><svg enable-background="new 0 0 64 64" height="64px" id="Layer_1" version="1.1" viewBox="0 0 64 64" width="64px" xml:space="preserve" xmlns="http://www.w3.org/2000/svg" xmlns:xlink="http://www.w3.org/1999/xlink"><circle cx="32" cy="32" fill="#C75C5C" r="32"/><g opacity="0.2"><path d="M57.675,31.896l-5.285-5.285l-6.285-6.285c-0.434-0.434-1.138-0.434-1.571,0l-3.928,3.928l-3.928,3.928   c-0.434,0.434-0.434,1.137,0,1.571l6.285,6.285l5.285,5.285c0.434,0.434,1.137,0.434,1.571,0l3.928-3.928l3.928-3.928   C58.108,33.034,58.108,32.33,57.675,31.896z" fill="#231F20"/><path d="M23.396,24.254l-3.928-3.928c-0.434-0.434-1.137-0.434-1.571,0l-6.285,6.285l-5.285,5.285   C5.892,32.33,5.566,33.384,6,33.818l3.928,3.928l3.928,3.928c0.434,0.434,1.137,0.434,1.571,0l5.611-5.636l6.285-6.285   c0.434-0.434,0.434-1.137,0-1.571L23.396,24.254z" fill="#231F20"/></g><g><path d="M47.675,29.325l-4.714,4.714l5.285,5.285c0.434,0.434,1.137,0.434,1.571,0l3.928-3.928L47.675,29.325z" fill="#FFFFFF"/><path d="M52.389,24.611l-6.285-6.285c-0.434-0.434-1.137-0.434-1.571,0l-3.928,3.928l7.071,7.071L52.389,24.611z" fill="#FFFFFF"/><path d="M53.746,35.396l3.928-3.928c0.434-0.434,0.434-1.137,0-1.571l-5.285-5.285l-4.714,4.714L53.746,35.396z" fill="#4F5D73"/><path d="M40.604,22.254l-3.928,3.928c-0.434,0.434-0.434,1.137,0,1.571l6.285,6.285l4.714-4.714L40.604,22.254z" fill="#4F5D73"/></g><g><path d="M16.325,29.325l4.714,4.714l-5.611,5.636c-0.434,0.434-1.137,0.434-1.571,0l-3.928-3.928L16.325,29.325z" fill="#FFFFFF"/><path d="M11.611,24.611l6.285-6.285c0.434-0.434,1.137-0.434,1.571,0l3.928,3.928l-7.071,7.071L11.611,24.611z" fill="#FFFFFF"/><path d="M9.928,35.746L6,31.818c-0.434-0.434-0.108-1.488,0.325-1.922l5.285-5.285l4.714,4.714L9.928,35.746z" fill="#4F5D73"/><path d="M23.396,22.254l3.928,3.928c0.434,0.434,0.434,1.137,0,1.571l-6.285,6.285l-4.714-4.714L23.396,22.254z" fill="#4F5D73"/></g><g opacity="0.2"><path d="M17.569,50.203c-0.384,0-0.768-0.146-1.061-0.439c-0.586-0.585-0.586-1.536,0-2.121l28.457-28.456   c0.586-0.586,1.535-0.586,2.121,0c0.586,0.585,0.586,1.536,0,2.121L18.629,49.764C18.336,50.057,17.953,50.203,17.569,50.203z" fill="#231F20"/></g><line fill="none" stroke="#E0E0D1" stroke-linecap="round" stroke-linejoin="round" stroke-miterlimit="10" stroke-width="3" x1="46.025" x2="17.569" y1="18.247" y2="46.703"/><g opacity="0.2"><path d="M46.431,50.203c-0.384,0-0.768-0.146-1.061-0.439L16.914,21.308c-0.586-0.585-0.586-1.536,0-2.121   c0.586-0.586,1.535-0.586,2.121,0l28.457,28.456c0.586,0.585,0.586,1.536,0,2.121C47.199,50.057,46.815,50.203,46.431,50.203z" fill="#231F20"/></g><line fill="none" stroke="#E0E0D1" stroke-linecap="round" stroke-linejoin="round" stroke-miterlimit="10" stroke-width="3" x1="17.975" x2="46.431" y1="18.247" y2="46.703"/></svg>