<?xml version="1.0" ?><svg enable-background="new 0 0 64 64" height="64px" version="1.1" viewBox="0 0 64 64" width="64px" xml:space="preserve" xmlns="http://www.w3.org/2000/svg" xmlns:xlink="http://www.w3.org/1999/xlink"><g id="Layer_1"><g><circle cx="32" cy="32" fill="#E0E0D1" r="32"/></g><g opacity="0.2"><path d="M32,10C18.745,10,8,20.745,8,34c0,5.301,1.722,10.198,4.632,14.169c0.243,0.267,2.551,2.648,5.225-0.027    l2.828-2.828l2.828-2.828l2.828-2.828c0,0,1.657-1.636,1.657-5.657c0-2.209,1.791-4,4-4s4,1.791,4,4c0,0-0.259,3.741,1.657,5.657    l2.134,2.134c0.225,0.225,0.457,0.457,0.694,0.694c0.696,0.696,1.431,1.431,2.133,2.133l0.696,0.696l1.772,1.772    c0.323,0.323,0.587,0.587,0.77,0.77l0.286,0.286c0,0,2.794,2.77,5.23,0.02C54.28,44.192,56,39.298,56,34    C56,20.745,45.255,10,32,10z" fill="#231F20"/></g><g><g><path d="M17.858,46.142C14.239,42.523,12,37.523,12,32c0-11.046,8.954-20,20-20s20,8.954,20,20     c0,5.523-2.239,10.523-5.858,14.142c0,0,2.794,2.77,5.23,0.02C54.28,42.192,56,37.298,56,32C56,18.745,45.255,8,32,8     S8,18.745,8,32c0,5.301,1.722,10.198,4.632,14.169C12.876,46.436,15.183,48.817,17.858,46.142z" fill="#C75C5C"/></g><g><path d="M32,12c-11.046,0-20,8.954-20,20c0,5.523,2.239,10.523,5.858,14.142l2.828-2.828     C17.791,40.418,16,36.418,16,32c0-8.837,7.163-16,16-16s16,7.163,16,16c0,4.418-1.791,8.418-4.686,11.314l1.772,1.772     c0.323,0.323,0.587,0.587,0.77,0.77l0.286,0.286C49.761,42.523,52,37.523,52,32C52,20.954,43.046,12,32,12z" fill="#E0995E"/></g><g><path d="M32,16c-8.837,0-16,7.163-16,16c0,4.418,1.791,8.418,4.686,11.314l2.828-2.828     C21.343,38.314,20,35.314,20,32c0-6.627,5.373-12,12-12s12,5.373,12,12c0,3.314-1.343,6.314-3.515,8.485     c0.696,0.696,1.431,1.431,2.133,2.133l0.696,0.696C46.209,40.418,48,36.418,48,32C48,23.163,40.837,16,32,16z" fill="#F5CF87"/></g><g><path d="M32,20c-6.627,0-12,5.373-12,12c0,3.314,1.343,6.314,3.515,8.485l2.828-2.828     C24.895,36.209,24,34.209,24,32c0-4.418,3.582-8,8-8s8,3.582,8,8c0,2.209-0.895,4.209-2.343,5.657l2.134,2.134     c0.225,0.225,0.457,0.457,0.694,0.694C42.657,38.314,44,35.314,44,32C44,25.373,38.627,20,32,20z" fill="#76C2AF"/></g><g><path d="M32,24c-4.418,0-8,3.582-8,8c0,2.209,0.895,4.209,2.343,5.657c0,0,1.657-1.636,1.657-5.657     c0-2.209,1.791-4,4-4s4,1.791,4,4c0,0-0.259,3.741,1.657,5.657C39.105,36.209,40,34.209,40,32C40,27.582,36.418,24,32,24z" fill="#4F5D73"/></g></g></g><g id="Layer_2"/></svg>