<?xml version="1.0" encoding="UTF-8" standalone="no"?>
<svg
   xmlns:dc="http://purl.org/dc/elements/1.1/"
   xmlns:cc="http://creativecommons.org/ns#"
   xmlns:rdf="http://www.w3.org/1999/02/22-rdf-syntax-ns#"
   xmlns:svg="http://www.w3.org/2000/svg"
   xmlns="http://www.w3.org/2000/svg"
   xmlns:sodipodi="http://sodipodi.sourceforge.net/DTD/sodipodi-0.dtd"
   xmlns:inkscape="http://www.inkscape.org/namespaces/inkscape"
   enable-background="new 0 0 64 64"
   height="64px"
   version="1.1"
   viewBox="0 0 64 64"
   width="64px"
   xml:space="preserve"
   id="svg2"
   inkscape:version="0.91 r13725"
   sodipodi:docname="tetris.svg"><metadata
     id="metadata54"><rdf:RDF><cc:Work
         rdf:about=""><dc:format>image/svg+xml</dc:format><dc:type
           rdf:resource="http://purl.org/dc/dcmitype/StillImage" /></cc:Work></rdf:RDF></metadata><defs
     id="defs52" /><sodipodi:namedview
     pagecolor="#ffffff"
     bordercolor="#666666"
     borderopacity="1"
     objecttolerance="10"
     gridtolerance="10"
     guidetolerance="10"
     inkscape:pageopacity="0"
     inkscape:pageshadow="2"
     inkscape:window-width="1920"
     inkscape:window-height="1004"
     id="namedview50"
     showgrid="false"
     inkscape:zoom="3.6875"
     inkscape:cx="21.123312"
     inkscape:cy="44.487139"
     inkscape:window-x="1920"
     inkscape:window-y="24"
     inkscape:window-maximized="1"
     inkscape:current-layer="svg2" /><circle
     style="fill:#4f5d73"
     cx="32"
     cy="32"
     r="32"
     id="circle4226" /><g
     id="Layer_2" /><g
     id="g4137"
     transform="translate(0,0.27118652)"><path
       id="rect4188"
       d="m 12.997096,27.544876 0,22.939453 15.111328,0 0,-7.832031 -0.205078,0 -7.556641,0 0,-7.783203 0,-7.324219 -7.349609,0 z"
       style="opacity:1;fill:#c75c5c;fill-opacity:1;stroke:none;stroke-width:10;stroke-linejoin:miter;stroke-miterlimit:4;stroke-dasharray:none;stroke-opacity:1"
       inkscape:connector-curvature="0" /><path
       sodipodi:nodetypes="ccccccccccc"
       inkscape:connector-curvature="0"
       id="rect4188-3"
       d="m 27.936631,9.1758508 0,7.5602132 -7.60154,0 0,8.030831 7.60154,0 7.829649,2.8e-5 0,-7.560243 7.601501,0 0,-8.0308292 -7.60154,0 c -2.609868,0 -5.21974,0 -7.82961,0 z"
       style="opacity:1;fill:#e0995e;fill-opacity:1;stroke:none;stroke-width:10;stroke-linejoin:miter;stroke-miterlimit:4;stroke-dasharray:none;stroke-opacity:1" /><path
       inkscape:connector-curvature="0"
       id="rect4188-3-5"
       d="m 35.663788,35.374901 0,7.327084 -7.556217,0 0,7.783181 7.556217,0 7.782913,0 7.556203,0 0,-7.783181 -7.556203,0 0,-7.327084 -7.782913,0 z"
       style="opacity:1;fill:#76c2af;fill-opacity:1;stroke:none;stroke-width:10;stroke-linejoin:miter;stroke-miterlimit:4;stroke-dasharray:none;stroke-opacity:1" /></g></svg>